<svg xmlns="http://www.w3.org/2000/svg" viewBox="0 0 300 600" width="300" height="600">
  <defs>
    <linearGradient id="phoneGrad" x1="0%" y1="0%" x2="100%" y2="0%">
      <stop offset="0%" style="stop-color:#f8f9ff;stop-opacity:1" />
      <stop offset="100%" style="stop-color:#e8f4fd;stop-opacity:1" />
    </linearGradient>
    <linearGradient id="screenGrad" x1="0%" y1="0%" x2="0%" y2="100%">
      <stop offset="0%" style="stop-color:#ffffff;stop-opacity:1" />
      <stop offset="100%" style="stop-color:#f5f7fa;stop-opacity:1" />
    </linearGradient>
    <linearGradient id="billbotGrad" x1="0%" y1="0%" x2="100%" y2="100%">
      <stop offset="0%" style="stop-color:#0084FF;stop-opacity:1" />
      <stop offset="100%" style="stop-color:#00C6FF;stop-opacity:1" />
    </linearGradient>
  </defs>
  
  <!-- Phone Body -->
  <rect x="20" y="20" width="260" height="560" rx="30" fill="#2c3e50" stroke="#34495e" stroke-width="2"/>
  
  <!-- Screen -->
  <rect x="35" y="80" width="230" height="440" rx="15" fill="url(#screenGrad)"/>
  
  <!-- Header Bar -->
  <rect x="35" y="80" width="230" height="60" rx="15" fill="url(#billbotGrad)"/>
  <text x="150" y="115" text-anchor="middle" fill="white" font-family="Arial, sans-serif" font-size="16" font-weight="bold">ЁЯдЦ BillBot</text>
  
  <!-- Chat Messages Container -->
  <rect x="45" y="150" width="210" height="320" fill="transparent"/>
  
  <!-- User message bubble -->
  <rect x="160" y="160" width="90" height="30" rx="15" fill="url(#billbotGrad)"/>
  <text x="205" y="180" text-anchor="middle" fill="white" font-family="Arial, sans-serif" font-size="10">ЁЯУ╕ р╕кр╣Ир╕Зр╕гр╕╣р╕Ыр╣Гр╕Ър╣Ар╕кр╕гр╣Зр╕И</text>
  
  <!-- Receipt Image mockup -->
  <rect x="60" y="200" width="100" height="120" rx="8" fill="#f0f2f5" stroke="#ddd" stroke-width="1"/>
  <text x="110" y="220" text-anchor="middle" fill="#666" font-family="Arial, sans-serif" font-size="8" font-weight="bold">ЁЯУД р╣Гр╕Ър╣Ар╕кр╕гр╣Зр╕И</text>
  <text x="110" y="235" text-anchor="middle" fill="#666" font-family="Arial, sans-serif" font-size="8">7-Eleven</text>
  
  <!-- Receipt content lines -->
  <rect x="70" y="245" width="80" height="2" fill="url(#billbotGrad)"/>
  <rect x="70" y="250" width="60" height="1" fill="#999"/>
  <rect x="70" y="255" width="50" height="1" fill="#999"/>
  <rect x="70" y="260" width="70" height="1" fill="#999"/>
  <rect x="70" y="265" width="55" height="1" fill="#999"/>
  <rect x="70" y="270" width="45" height="1" fill="#999"/>
  <rect x="70" y="275" width="65" height="1" fill="#999"/>
  <rect x="70" y="280" width="50" height="1" fill="#999"/>
  <rect x="70" y="285" width="40" height="1" fill="#999"/>
  <rect x="70" y="290" width="60" height="1" fill="#999"/>
  <rect x="70" y="295" width="70" height="2" fill="#333"/>
  <text x="110" y="310" text-anchor="middle" fill="#333" font-family="Arial, sans-serif" font-size="8" font-weight="bold">р╕┐45.50</text>
  
  <!-- Bot Response bubble -->
  <rect x="50" y="330" width="180" height="100" rx="15" fill="#f0f2f5"/>
  <text x="60" y="350" fill="#333" font-family="Arial, sans-serif" font-size="11" font-weight="bold">тЬЕ р╕Ыр╕гр╕░р╕бр╕зр╕ер╕Ьр╕ер╣Ар╕кр╕гр╣Зр╕Ир╣Бр╕ер╣Йр╕з!</text>
  <text x="60" y="365" fill="#666" font-family="Arial, sans-serif" font-size="9">ЁЯПк р╕гр╣Йр╕▓р╕Щ: 7-Eleven</text>
  <text x="60" y="378" fill="#666" font-family="Arial, sans-serif" font-size="9">ЁЯТ░ р╕Ир╕│р╕Щр╕зр╕Щ: р╕┐45.50</text>
  <text x="60" y="391" fill="#666" font-family="Arial, sans-serif" font-size="9">ЁЯУЕ р╕зр╕▒р╕Щр╕Чр╕╡р╣И: 08/06/2024</text>
  <text x="60" y="404" fill="#666" font-family="Arial, sans-serif" font-size="9">ЁЯП╖я╕П р╕лр╕бр╕зр╕Ф: р╕нр╕▓р╕лр╕▓р╕г</text>
  <text x="60" y="417" fill="#0084FF" font-family="Arial, sans-serif" font-size="9">ЁЯСЖ р╕Др╕ер╕┤р╕Бр╣Ар╕Юр╕╖р╣Ир╕нр╣Бр╕Бр╣Йр╣Др╕В</text>
  
  <!-- Download Button -->
  <rect x="60" y="440" width="120" height="30" rx="15" fill="url(#billbotGrad)"/>
  <text x="120" y="459" text-anchor="middle" fill="white" font-family="Arial, sans-serif" font-size="10" font-weight="bold">ЁЯУБ р╕Фр╕▓р╕зр╕Щр╣Мр╣Вр╕лр╕ер╕Ф CSV</text>
  
  <!-- Input Area -->
  <rect x="45" y="480" width="160" height="30" rx="15" fill="white" stroke="#ddd" stroke-width="1"/>
  <text x="55" y="500" fill="#999" font-family="Arial, sans-serif" font-size="10">р╕Юр╕┤р╕бр╕Юр╣Мр╕Вр╣Йр╕нр╕Др╕зр╕▓р╕бр╕лр╕гр╕╖р╕нр╕кр╣Ир╕Зр╕гр╕╣р╕Ы...</text>
  
  <!-- Send Button -->
  <circle cx="225" cy="495" r="15" fill="url(#billbotGrad)"/>
  <text x="225" y="500" text-anchor="middle" fill="white" font-family="Arial, sans-serif" font-size="12">тЮд</text>
  
  <!-- Status indicators -->
  <circle cx="50" cy="90" r="3" fill="#00ff00"/>
  <circle cx="60" cy="90" r="3" fill="#00ff00"/>
  <circle cx="70" cy="90" r="3" fill="#00ff00"/>
  
  <!-- Speaker -->
  <rect x="130" y="50" width="40" height="6" rx="3" fill="#bdc3c7"/>
  
  <!-- Home indicator -->
  <rect x="130" y="540" width="40" height="6" rx="3" fill="#bdc3c7"/>
  
  <!-- Notification dot -->
  <circle cx="190" cy="110" r="4" fill="#ff4444"/>
  <text x="190" y="114" text-anchor="middle" fill="white" font-family="Arial, sans-serif" font-size="8" font-weight="bold">3</text>
</svg> 